#!OML:ASF I:\Actors\actors\Patient Classification 1\Patient 1\Session 1\Subject1.ASF
:FULLY-SPECIFIED
:DEGREES
782
root -0.491174 17.6175 8.10151 6.36286 -1.62834 -6.94833
lowerback 5.18929 0.930334 5.78
upperback -9.66415 1.86972 -0.724711
thorax -13.2838 0.256951 -4.34121
lowerneck -13.5598 -5.11877 -3.82224
upperneck 31.3408 -9.86621 9.86
head 13.5816 -3.55351 2.99035
rclavicle 3.97569e-016 1.74931e-014
rhumerus -51.2413 7.6139 -42.3408
rradius 144.975
rwrist 9.11424
rhand 28.7073 -23.1994
rfingers 7.12502
rthumb 52.5411 -42.978
lclavicle 3.97569e-016 1.74931e-014
lhumerus -41.8027 -7.74379 27.381
lradius 142.104
lwrist -4.16954
lhand -8.25739 -31.0466
lfingers 7.12502
lthumb 17.6612 -1.82867
rfemur 0.293163 22.1961 26.2212
rtibia 3.58997
rfoot -13.2419 -21.1469
rtoes 0.538863
lfemur 187.309 214.152 164.253
ltibia -2.9443
lfoot 347.951 -319.06
ltoes -2.72153
783
root -0.493589 17.6157 8.09796 6.29945 -1.67197 -6.98949
lowerback 5.1 0.930411 5.81767
upperback -9.71702 1.8689 -0.732926
thorax -13.2901 0.250846 -4.36944
lowerneck -13.5183 -5.08662 -3.87318
upperneck 31.5476 -9.86789 9.96236
head 13.6734 -3.54291 3.04771
rclavicle -2.18663e-015 1.59028e-015
rhumerus -50.5912 9.67285 -45.5538
rradius 145.657
rwrist 9.80719
rhand 27.7485 -23.2942
rfingers 7.12502
rthumb 51.6718 -43.5928
lclavicle -2.18663e-015 1.59028e-015
lhumerus -41.2757 -10.1028 30.2561
lradius 143.283
lwrist -4.45298
lhand -8.43692 -31.761
lfingers 7.12502
lthumb 17.4884 -2.52762
rfemur 0.3131 22.1429 26.288
rtibia 3.65168
rfoot -13.2556 -21.0572
rtoes 0.526265
lfemur 187.333 214.042 164.296
ltibia -2.89432
lfoot 348.012 -319.113
ltoes -2.92626
784
root -0.496157 17.6136 8.09275 6.22262 -1.68732 -7.01629
lowerback 5.02669 0.91877 5.84247
upperback -9.75426 1.85081 -0.744067
thorax -13.2902 0.238158 -4.39117
lowerneck -13.4267 -5.04225 -3.90597
upperneck 31.7024 -9.85574 10.0815
head 13.7305 -3.52533 3.11078
rclavicle -6.16232e-015 7.95139e-016
rhumerus -49.7629 11.8095 -48.865
rradius 146.056
rwrist 10.5029
rhand 26.754 -23.4497
rfingers 7.12502
rthumb 50.7665 -44.2605
lclavicle -6.16232e-015 7.95139e-016
lhumerus -40.6889 -12.6321 33.3053
lradius 144.208
lwrist -4.85851
lhand -8.50958 -32.4415
lfingers 7.12502
lthumb 17.4185 -3.20196
rfemur 0.349957 22.079 26.3446
rtibia 3.7022
rfoot -13.2684 -20.9878
rtoes 0.515625
lfemur 187.359 213.942 164.322
ltibia -2.84161
lfoot 348.084 -319.186
ltoes -3.14002
785
root -0.498836 17.611 8.08563 6.13329 -1.67938 -7.02653
lowerback 4.96882 0.898041 5.85395
upperback -9.77651 1.81873 -0.760616
thorax -13.2838 0.220329 -4.40946
lowerneck -13.2908 -4.99263 -3.91894
upperneck 31.8025 -9.83003 10.1887
head 13.7506 -3.50425 3.16712
rclavicle 7.15625e-015 -1.51076e-014
rhumerus -48.7259 14.0109 -52.2129
rradius 146.179
rwrist 11.1026
rhand 25.7139 -23.6965
rfingers 7.12502
rthumb 49.8158 -45.0155
lclavicle 7.15625e-015 -1.51076e-014
lhumerus -39.9967 -15.3065 36.4502
lradius 144.853
lwrist -5.31255
lhand -8.49299 -32.9707
lfingers 7.12502
lthumb 17.4344 -3.73252
rfemur 0.404261 22.0113 26.3883
rtibia 3.73703
rfoot -13.2762 -20.9401
rtoes 0.501946
lfemur 187.384 213.84 164.331
ltibia -2.78464
lfoot 348.152 -319.287
ltoes -3.33013
786
root -0.50155 17.6083 8.07629 6.03465 -1.65447 -7.02756
lowerback 4.92683 0.873005 5.8606
upperback -9.78824 1.78052 -0.781125
thorax -13.2756 0.200082 -4.42881
lowerneck -13.1321 -4.93534 -3.90772
upperneck 31.8868 -9.78653 10.2656
head 13.7531 -3.47761 3.20985
rclavicle 1.03368e-014 2.38542e-014
rhumerus -47.4717 16.2693 -55.5313
rradius 146.048
rwrist 11.5803
rhand 24.6227 -24.0377
rfingers 7.12502
rthumb 48.8145 -45.8613
lclavicle 1.03368e-014 2.38542e-014
lhumerus -39.1563 -18.1292 39.6164
lradius 145.199
lwrist -5.75521
lhand -8.47377 -33.2814
lfingers 7.12502
lthumb 17.4529 -4.04489
rfemur 0.471747 21.9518 26.4266
rtibia 3.75593
rfoot -13.2739 -20.9171
rtoes 0.477768
lfemur 187.403 213.726 164.337
ltibia -2.72761
lfoot 348.217 -319.417
ltoes -3.49256
